<svg version="1.1" xmlns="http://www.w3.org/2000/svg" xmlns:xlink="http://www.w3.org/1999/xlink" width="609" height="460"><defs><linearGradient x1="293.75" y1="106.5" x2="293.75" y2="179" gradientUnits="userSpaceOnUse" id="color-1"><stop offset="0" stop-color="#f3f3f3" stop-opacity="0"/><stop offset="1" stop-color="#f3f3f3"/></linearGradient><linearGradient x1="239.75" y1="178.5" x2="239.75" y2="251" gradientUnits="userSpaceOnUse" id="color-2"><stop offset="0" stop-color="#f3f3f3"/><stop offset="1" stop-color="#f3f3f3" stop-opacity="0"/></linearGradient></defs><g transform="translate(20,6)"><g data-paper-data="{&quot;isPaintingLayer&quot;:true}" fill="none" fill-rule="nonzero" stroke="none" stroke-width="none" stroke-linecap="butt" stroke-linejoin="miter" stroke-miterlimit="10" stroke-dasharray="" stroke-dashoffset="0" font-family="none" font-weight="none" font-size="none" text-anchor="none" style="mix-blend-mode: normal"><path d="M-20,454v-460h609v460z" data-paper-data="{&quot;origPos&quot;:null}" fill="#ffffff" stroke-width="0"/><path d="M54.5,179l54,-72.5l262.5,1l57,72.5z" data-paper-data="{&quot;origPos&quot;:null}" fill="url(#color-1)" stroke-width="0"/><g data-paper-data="{&quot;origPos&quot;:null,&quot;origRot&quot;:0}" fill="#000000" stroke-width="0"><path d="M129.07322,148.31562c-12.32349,-26.97943 -0.44251,-58.84075 26.53693,-71.16424c26.97943,-12.32349 58.84076,-0.4425 71.16425,26.53694c12.32349,26.97943 0.4425,58.84075 -26.53693,71.16424c-26.97943,12.32349 -58.84075,0.4425 -71.16424,-26.53693z"/><path d="M229.24736,102.01952c-12.0984,-26.48666 -0.43442,-57.76603 26.05224,-69.86444c26.48666,-12.0984 57.76603,-0.43442 69.86444,26.05224c12.09841,26.48666 0.43442,57.76604 -26.05224,69.86444c-26.48666,12.0984 -57.76603,0.43442 -69.86444,-26.05224z" data-paper-data="{&quot;origPos&quot;:null}"/><path d="M180.22033,138.70268l-32.67063,-63.26154l111.97714,-51.14819l22.94397,71.47886c0,0 -22.1646,24.14352 -42.88318,33.60722c-20.71857,9.4637 -59.3673,9.32366 -59.3673,9.32366z" data-paper-data="{&quot;origPos&quot;:null}"/></g><g data-paper-data="{&quot;origPos&quot;:null,&quot;origRot&quot;:0,&quot;index&quot;:null}" fill="#dcdcdc" stroke-width="0"><path d="M199.23746,185.16092c26.97943,12.32349 38.86042,44.1848 26.53694,71.16424c-12.32349,26.97944 -44.18481,38.86043 -71.16425,26.53694c-26.97943,-12.32349 -38.86042,-44.18481 -26.53693,-71.16425c12.32349,-26.97943 44.18481,-38.86042 71.16424,-26.53693z"/><path d="M298.11179,231.94171c26.48666,12.09841 38.15065,43.37778 26.05224,69.86444c-12.09841,26.48666 -43.37778,38.15064 -69.86444,26.05224c-26.48666,-12.09841 -38.15064,-43.37778 -26.05224,-69.86444c12.0984,-26.48666 43.37778,-38.15064 69.86444,-26.05224z" data-paper-data="{&quot;origPos&quot;:null}"/><path d="M238.58763,230.63446c20.71857,9.4637 42.88318,33.60721 42.88318,33.60721l-22.94397,71.47886l-111.97714,-51.14819l32.67063,-63.26155c0,0 38.64873,-0.14003 59.3673,9.32367z" data-paper-data="{&quot;origPos&quot;:null}"/></g><path d="M0.5,251l54,-72.5l373.5,1l51,71.5z" data-paper-data="{&quot;origPos&quot;:null}" fill="url(#color-2)" stroke-width="0"/><text transform="translate(58,131.5) scale(1.15006,1.15006)" font-size="40" xml:space="preserve" data-paper-data="{&quot;origPos&quot;:null}" fill="#000000" fill-rule="nonzero" stroke="none" stroke-width="1" stroke-linecap="butt" stroke-linejoin="miter" stroke-miterlimit="10" stroke-dasharray="" stroke-dashoffset="0" font-family="Sans Serif" font-weight="normal" text-anchor="start" style="mix-blend-mode: normal"><tspan x="0" dy="0">Scr</tspan></text><text transform="translate(131,131.5) scale(1.15006,1.15006)" font-size="40" xml:space="preserve" data-paper-data="{&quot;origPos&quot;:null}" fill="#ffffff" fill-rule="nonzero" stroke="none" stroke-width="1" stroke-linecap="butt" stroke-linejoin="miter" stroke-miterlimit="10" stroke-dasharray="" stroke-dashoffset="0" font-family="Sans Serif" font-weight="normal" text-anchor="start" style="mix-blend-mode: normal"><tspan x="0" dy="0">atch</tspan></text><text transform="translate(252,123.17188) scale(2.87406,2.87405)" font-size="40" xml:space="preserve" data-paper-data="{&quot;origPos&quot;:null}" fill="#ffffff" fill-rule="nonzero" stroke="none" stroke-width="1" stroke-linecap="butt" stroke-linejoin="miter" stroke-miterlimit="10" stroke-dasharray="" stroke-dashoffset="0" font-family="Sans Serif" font-weight="normal" text-anchor="start" style="mix-blend-mode: normal"><tspan x="0" dy="0">V</tspan></text><text transform="translate(324,123.17188) scale(2.87406,2.87405)" font-size="40" xml:space="preserve" data-paper-data="{&quot;origPos&quot;:null}" fill="#000000" fill-rule="nonzero" stroke="none" stroke-width="1" stroke-linecap="butt" stroke-linejoin="miter" stroke-miterlimit="10" stroke-dasharray="" stroke-dashoffset="0" font-family="Sans Serif" font-weight="normal" text-anchor="start" style="mix-blend-mode: normal"><tspan x="0" dy="0">R</tspan></text><text transform="translate(88,270) scale(0.8467,0.8467)" font-size="40" xml:space="preserve" data-paper-data="{&quot;origPos&quot;:null}" fill="#7e7e7e" fill-rule="nonzero" stroke="none" stroke-width="1" stroke-linecap="butt" stroke-linejoin="miter" stroke-miterlimit="10" stroke-dasharray="" stroke-dashoffset="0" font-family="Sans Serif" font-weight="normal" text-anchor="start" style="mix-blend-mode: normal"><tspan x="0" dy="0">Duplicate Screens</tspan></text></g></g></svg>